<svg xmlns="http://www.w3.org/2000/svg" id="GitGlass_icon" viewBox="0 0 248 428">
  <defs>
    <linearGradient id="linear-gradient" x1="142.962" x2="234.661" y1="54.84" y2="79.255" gradientTransform="matrix(1 0 0 -1 0 426.515)" gradientUnits="userSpaceOnUse">
      <stop offset=".209" stop-color="#330191"/>
      <stop offset=".512" stop-color="#8211c1"/>
      <stop offset=".715" stop-color="#c418e3"/>
      <stop offset="1" stop-color="#ed5efb"/>
    </linearGradient>
    <linearGradient id="linear-gradient-2" x1="187.387" x2="240.743" y1="166.096" y2="134.51" gradientTransform="matrix(1 0 0 -1 0 426.515)" gradientUnits="userSpaceOnUse">
      <stop offset=".425" stop-color="#1e017d"/>
      <stop offset="1" stop-color="#8211c1"/>
    </linearGradient>
    <linearGradient id="linear-gradient-3" x1="51.271" x2="140.974" y1="53.888" y2="141.25" gradientTransform="matrix(1 0 0 -1 0 426.515)" gradientUnits="userSpaceOnUse">
      <stop offset=".069" stop-color="#fdcafb"/>
      <stop offset=".138" stop-color="#c418e3"/>
      <stop offset=".307" stop-color="#1e017d"/>
      <stop offset="1" stop-color="#4603b9"/>
    </linearGradient>
    <linearGradient id="linear-gradient-4" x1="7.337" x2="66.495" y1="145.301" y2="164.667" gradientTransform="matrix(1 0 0 -1 0 426.515)" gradientUnits="userSpaceOnUse">
      <stop offset="0" stop-color="#e744fa"/>
      <stop offset=".237" stop-color="#c418e3"/>
      <stop offset=".564" stop-color="#1e017d"/>
    </linearGradient>
    <linearGradient id="linear-gradient-5" x1="63.899" x2="184.109" y1="53.935" y2="53.935" gradientTransform="matrix(1 0 0 -1 0 426.515)" gradientUnits="userSpaceOnUse">
      <stop offset=".058" stop-color="#a839fb"/>
      <stop offset=".44" stop-color="#330191"/>
      <stop offset=".675" stop-color="#10007a"/>
      <stop offset="1" stop-color="#4603b9"/>
    </linearGradient>
    <linearGradient id="linear-gradient-6" x1="134.276" x2="216.942" y1="393.516" y2="305.102" gradientTransform="matrix(1 0 0 -1 0 426.515)" gradientUnits="userSpaceOnUse">
      <stop offset="0" stop-color="#4603b9"/>
      <stop offset=".372" stop-color="#8211c1"/>
      <stop offset=".63" stop-color="#e744fa"/>
      <stop offset=".932" stop-color="#4603b9"/>
    </linearGradient>
    <linearGradient id="linear-gradient-7" x1="185.832" x2="243.775" y1="260.911" y2="283.404" gradientTransform="matrix(1 0 0 -1 0 426.515)" gradientUnits="userSpaceOnUse">
      <stop offset="0" stop-color="#c418e3"/>
      <stop offset=".153" stop-color="#8d0fc4"/>
      <stop offset=".309" stop-color="#5c07a8"/>
      <stop offset=".428" stop-color="#3e0297"/>
      <stop offset=".495" stop-color="#330191"/>
    </linearGradient>
    <linearGradient id="linear-gradient-8" x1="215.974" x2="245.358" y1="217.1" y2="212.343" gradientTransform="matrix(1 0 0 -1 0 426.515)" gradientUnits="userSpaceOnUse">
      <stop offset=".26" stop-color="#10007a"/>
      <stop offset=".468" stop-color="#1b0180"/>
      <stop offset="1" stop-color="#c418e3"/>
    </linearGradient>
    <linearGradient id="linear-gradient-9" x1="60.02" x2="97.135" y1="361.529" y2="336.007" gradientTransform="matrix(1 0 0 -1 0 426.515)" gradientUnits="userSpaceOnUse">
      <stop offset="0" stop-color="#ed5efb"/>
      <stop offset=".708" stop-color="#fdcafb"/>
    </linearGradient>
    <linearGradient id="linear-gradient-10" x1="68.249" x2="9.964" y1="227.948" y2="339.471" gradientTransform="matrix(1 0 0 -1 0 426.515)" gradientUnits="userSpaceOnUse">
      <stop offset=".26" stop-color="#a839fb"/>
      <stop offset=".547" stop-color="#8211c1"/>
      <stop offset=".816" stop-color="#291de7"/>
    </linearGradient>
    <linearGradient id="linear-gradient-11" x1="87.845" x2="129.238" y1="418.894" y2="306.024" gradientTransform="matrix(1 0 0 -1 0 426.515)" gradientUnits="userSpaceOnUse">
      <stop offset="0" stop-color="#8211c1"/>
      <stop offset=".446" stop-color="#e744fa"/>
      <stop offset=".501" stop-color="#8211c1"/>
      <stop offset=".701" stop-color="#c418e3"/>
      <stop offset=".98" stop-color="#ed5efb"/>
    </linearGradient>
    <linearGradient id="linear-gradient-12" x1="-27.919" x2="63.134" y1="203.21" y2="230.187" gradientTransform="matrix(1 0 0 -1 0 426.515)" gradientUnits="userSpaceOnUse">
      <stop offset="0" stop-color="#ed5efb"/>
      <stop offset=".258" stop-color="#c418e3"/>
      <stop offset=".644" stop-color="#4603b9"/>
      <stop offset=".892" stop-color="#1e017d"/>
    </linearGradient>
    <linearGradient id="linear-gradient-13" x1="65.582" x2="172.69" y1="320.01" y2="122.933" gradientTransform="matrix(1 0 0 -1 0 426.515)" gradientUnits="userSpaceOnUse">
      <stop offset="0" stop-color="#8211c1"/>
      <stop offset=".435" stop-color="#10007a"/>
      <stop offset=".718" stop-color="#4603b9"/>
      <stop offset="1" stop-color="#1e017d"/>
    </linearGradient>
    <linearGradient id="linear-gradient-14" x1="72.911" x2="122.917" y1="324.107" y2="232.095" gradientTransform="matrix(1 0 0 -1 0 426.515)" gradientUnits="userSpaceOnUse">
      <stop offset=".417" stop-color="#8211c1"/>
      <stop offset="1" stop-color="#10007a"/>
    </linearGradient>
    <linearGradient id="linear-gradient-15" x1="148.316" x2="211.105" y1="378.5" y2="311.343" gradientTransform="matrix(1 0 0 -1 0 426.515)" gradientUnits="userSpaceOnUse">
      <stop offset=".04" stop-color="#fff"/>
      <stop offset="1" stop-color="#fff" stop-opacity="0"/>
    </linearGradient>
    <linearGradient id="linear-gradient-16" x1="192.168" x2="237.037" y1="162.242" y2="135.679" gradientTransform="matrix(1 0 0 -1 0 426.515)" gradientUnits="userSpaceOnUse">
      <stop offset="0" stop-color="#fff"/>
      <stop offset="1" stop-color="#fff" stop-opacity="0"/>
    </linearGradient>
    <linearGradient id="linear-gradient-17" x1="191.032" x2="239.64" y1="264.413" y2="283.281" gradientTransform="matrix(1 0 0 -1 0 426.515)" gradientUnits="userSpaceOnUse">
      <stop offset="0" stop-color="#fff"/>
      <stop offset=".02" stop-color="#fff" stop-opacity=".964"/>
      <stop offset=".221" stop-color="#fff" stop-opacity=".626"/>
      <stop offset=".397" stop-color="#fff" stop-opacity=".358"/>
      <stop offset=".544" stop-color="#fff" stop-opacity=".164"/>
      <stop offset=".655" stop-color="#fff" stop-opacity=".045"/>
      <stop offset=".717" stop-color="#fff" stop-opacity="0"/>
    </linearGradient>
    <linearGradient id="linear-gradient-18" x1="91.303" x2="128.528" y1="412.409" y2="310.904" gradientTransform="matrix(1 0 0 -1 0 426.515)" gradientUnits="userSpaceOnUse">
      <stop offset="0" stop-color="#fff" stop-opacity="0"/>
      <stop offset="1" stop-color="#fff"/>
    </linearGradient>
    <linearGradient id="linear-gradient-19" x1="59.04" x2="86.499" y1="354.156" y2="335.276" gradientTransform="matrix(1 0 0 -1 0 426.515)" gradientUnits="userSpaceOnUse">
      <stop offset="0" stop-color="#fff" stop-opacity="0"/>
      <stop offset="1" stop-color="#fff"/>
    </linearGradient>
    <linearGradient id="linear-gradient-20" x1="62.607" x2="13.419" y1="236.443" y2="330.559" gradientTransform="matrix(1 0 0 -1 0 426.515)" gradientUnits="userSpaceOnUse">
      <stop offset=".011" stop-color="#fff"/>
      <stop offset=".5" stop-color="#fff" stop-opacity="0"/>
    </linearGradient>
    <linearGradient id="linear-gradient-21" x1="10.973" x2="60.527" y1="144.871" y2="161.094" gradientTransform="matrix(1 0 0 -1 0 426.515)" gradientUnits="userSpaceOnUse">
      <stop offset="0" stop-color="#fff" stop-opacity="0"/>
      <stop offset=".422" stop-color="#fff" stop-opacity=".5"/>
    </linearGradient>
    <linearGradient id="linear-gradient-22" x1="69.947" x2="178.061" y1="55.387" y2="55.387" gradientTransform="matrix(1 0 0 -1 0 426.515)" gradientUnits="userSpaceOnUse">
      <stop offset="0" stop-color="#fff"/>
      <stop offset=".65" stop-color="#fff" stop-opacity="0"/>
    </linearGradient>
    <linearGradient id="linear-gradient-23" x1="155.077" x2="224.563" y1="64.264" y2="82.765" gradientTransform="matrix(1 0 0 -1 0 426.515)" gradientUnits="userSpaceOnUse">
      <stop offset="0" stop-color="#fff" stop-opacity="0"/>
      <stop offset="1" stop-color="#fff"/>
    </linearGradient>
    <linearGradient id="linear-gradient-24" x1="122.339" x2="168.316" y1="196.262" y2="111.663" gradientTransform="matrix(1 0 0 -1 0 426.515)" gradientUnits="userSpaceOnUse">
      <stop offset="0" stop-color="#fff" stop-opacity=".2"/>
      <stop offset="1" stop-color="#fff" stop-opacity="0"/>
    </linearGradient>
    <linearGradient id="linear-gradient-25" x1="36.485" x2="190.457" y1="266.155" y2="266.155" gradientTransform="matrix(1 0 0 -1 0 426.515)" gradientUnits="userSpaceOnUse">
      <stop offset="0" stop-color="#fff" stop-opacity="0"/>
      <stop offset="1" stop-color="#fff" stop-opacity=".2"/>
    </linearGradient>
    <linearGradient id="linear-gradient-26" x1="52.803" x2="118.667" y1="64.074" y2="128.219" gradientTransform="matrix(1 0 0 -1 0 426.515)" gradientUnits="userSpaceOnUse">
      <stop offset="0" stop-color="#fff" stop-opacity="0"/>
      <stop offset=".471" stop-color="#fff"/>
    </linearGradient>
    <linearGradient id="linear-gradient-27" x1="2.578" x2="124" y1="359.468" y2="359.468" gradientTransform="matrix(1 0 0 -1 0 426.515)" gradientUnits="userSpaceOnUse">
      <stop offset="0" stop-color="#fdcafb"/>
      <stop offset=".996" stop-color="#c418e3"/>
    </linearGradient>
    <linearGradient id="linear-gradient-28" x1="3.199" x2="64.355" y1="266.274" y2="266.274" gradientTransform="matrix(1 0 0 -1 0 426.515)" gradientUnits="userSpaceOnUse">
      <stop offset="0" stop-color="#fdcafb"/>
      <stop offset=".996" stop-color="#c418e3"/>
    </linearGradient>
    <linearGradient id="linear-gradient-29" x1="124" x2="245.422" y1="359.468" y2="359.468" gradientTransform="matrix(1 0 0 -1 0 426.515)" gradientUnits="userSpaceOnUse">
      <stop offset="0" stop-color="#fdcafb"/>
      <stop offset=".996" stop-color="#c418e3"/>
    </linearGradient>
    <linearGradient id="linear-gradient-30" x1="183.646" x2="244.802" y1="266.274" y2="266.274" gradientTransform="matrix(1 0 0 -1 0 426.515)" gradientUnits="userSpaceOnUse">
      <stop offset="0" stop-color="#fdcafb"/>
      <stop offset=".996" stop-color="#c418e3"/>
    </linearGradient>
    <linearGradient id="linear-gradient-31" x1="2.578" x2="124" y1="65.563" y2="65.563" gradientTransform="matrix(1 0 0 -1 0 426.515)" gradientUnits="userSpaceOnUse">
      <stop offset="0" stop-color="#fdcafb"/>
      <stop offset=".996" stop-color="#c418e3"/>
    </linearGradient>
    <linearGradient id="linear-gradient-32" x1="3.199" x2="64.355" y1="158.756" y2="158.756" gradientTransform="matrix(1 0 0 -1 0 426.515)" gradientUnits="userSpaceOnUse">
      <stop offset="0" stop-color="#fdcafb"/>
      <stop offset=".996" stop-color="#c418e3"/>
    </linearGradient>
    <linearGradient id="linear-gradient-33" x1="124" x2="245.422" y1="65.563" y2="65.563" gradientTransform="matrix(1 0 0 -1 0 426.515)" gradientUnits="userSpaceOnUse">
      <stop offset="0" stop-color="#fdcafb"/>
      <stop offset=".996" stop-color="#c418e3"/>
    </linearGradient>
    <linearGradient id="linear-gradient-34" x1="183.646" x2="244.802" y1="158.756" y2="158.756" gradientTransform="matrix(1 0 0 -1 0 426.515)" gradientUnits="userSpaceOnUse">
      <stop offset="0" stop-color="#fdcafb"/>
      <stop offset=".996" stop-color="#c418e3"/>
    </linearGradient>
    <linearGradient id="linear-gradient-35" x1="124" x2="124" y1="320.033" y2="422.394" gradientTransform="matrix(1 0 0 -1 0 426.515)" gradientUnits="userSpaceOnUse">
      <stop offset="0" stop-color="#fdcafb"/>
      <stop offset=".996" stop-color="#c418e3"/>
    </linearGradient>
    <linearGradient id="linear-gradient-36" x1="17.183" x2="17.183" y1="128.548" y2="296.482" gradientTransform="matrix(1 0 0 -1 0 426.515)" gradientUnits="userSpaceOnUse">
      <stop offset="0" stop-color="#fdcafb"/>
      <stop offset=".996" stop-color="#c418e3"/>
    </linearGradient>
    <linearGradient id="linear-gradient-37" x1="215.76" x2="245.873" y1="212.515" y2="212.515" gradientTransform="matrix(1 0 0 -1 0 426.515)" gradientUnits="userSpaceOnUse">
      <stop offset="0" stop-color="#fdcafb"/>
      <stop offset=".996" stop-color="#c418e3"/>
    </linearGradient>
    <linearGradient id="linear-gradient-38" x1="124" x2="124" y1="2.637" y2="104.999" gradientTransform="matrix(1 0 0 -1 0 426.515)" gradientUnits="userSpaceOnUse">
      <stop offset="0" stop-color="#fdcafb"/>
      <stop offset=".996" stop-color="#c418e3"/>
    </linearGradient>
    <linearGradient id="linear-gradient-39" x1="124" x2="124" y1="320.033" y2="104.997" gradientTransform="matrix(1 0 0 -1 0 426.515)" gradientUnits="userSpaceOnUse">
      <stop offset="0" stop-color="#fdcafb"/>
      <stop offset=".996" stop-color="#c418e3"/>
    </linearGradient>
    <style>
      .cls-13{stroke-width:0;fill:#fdcafb}
    </style>
  </defs>
  <g id="GitGlass_icon-2" data-name="GitGlass icon">
    <g id="Base">
      <path d="m123.544 423.642 59.645-102.395.265-.228 61.155-24.066.58.863-120.8 126.463z" style="stroke-width:0;fill:url(#linear-gradient)"/>
      <path d="m244.804 297.449-120.8 126.462 59.645-102.396 61.154-24.066m-.389-.993-61.154 24.066-.531.455-59.645 102.396 1.692 1.273 120.8-126.462z" class="cls-13"/>
      <path d="m183.138 321.362 32.114-107.514 1.015-.023 29.04 83.449-.309.67-61.155 24.067z" style="stroke-width:0;fill:url(#linear-gradient-2)"/>
      <path d="m215.764 214 29.04 83.449-61.154 24.066zm1.006-.351-2.028.045-32.114 107.514 1.411 1.297 61.154-24.066.616-1.342z" class="cls-13"/>
      <path d="m2.819 297.816.58-.863 61.154 24.066.266.228 59.645 102.395-.846.637z" style="stroke-width:0;fill:url(#linear-gradient-3)"/>
      <path d="m3.205 297.449 61.154 24.066 59.645 102.396zm.39-.993-1.161 1.728 120.8 126.462 1.692-1.273-59.645-102.396-.531-.455z" class="cls-13"/>
      <path d="m3.01 297.944-.31-.67 29.041-83.449 1.014.023L64.87 321.362l-.706.649z" style="stroke-width:0;fill:url(#linear-gradient-4)"/>
      <path d="m32.245 214 32.114 107.514-61.154-24.066zm-1.007-.349L2.197 297.099l.616 1.342 61.154 24.066 1.411-1.297-32.114-107.514-2.028-.045z" class="cls-13"/>
      <path d="M123.544 424.179 63.899 321.783l.459-.802h119.29l.461.802-59.645 102.396z" style="stroke-width:0;fill:url(#linear-gradient-5)"/>
      <path d="M183.648 321.514 124.003 423.91 64.358 321.514zm0-1.066H64.358l-.921 1.602 59.645 102.396h1.842l59.645-102.396z" class="cls-13"/>
      <path d="m183.454 106.982-.265-.228L123.544 4.358l.845-.636 120.8 126.462-.58.864z" style="stroke-width:0;fill:url(#linear-gradient-6)"/>
      <path d="m124.004 4.091 120.8 126.462-61.154-24.066zm.771-.737-1.692 1.273 59.645 102.396.531.455 61.154 24.066 1.161-1.728z" class="cls-13"/>
      <path d="m215.252 214.152-32.114-107.514.705-.648 61.155 24.066.309.671-29.04 83.449z" style="stroke-width:0;fill:url(#linear-gradient-7)"/>
      <path d="m183.648 106.486 61.154 24.066-29.04 83.449zm.392-.993-1.411 1.297 32.114 107.514 2.028.045 29.04-83.449-.616-1.342-61.154-24.066h-.001Z" class="cls-13"/>
      <path d="M215.259 214.176v-.351l29.041-83.448 1.037.175v166.897l-1.037.175z" style="stroke-width:0;fill:url(#linear-gradient-8)"/>
      <path d="M244.804 130.552v166.896l-29.04-83.449 29.04-83.449m-1.007-.348-29.04 83.449v.7l29.04 83.449 2.072-.351V130.553z" class="cls-13"/>
      <path d="M2.819 130.184 123.618 3.722l.846.636-59.645 102.396-.266.228-61.154 24.066z" style="stroke-width:0;fill:url(#linear-gradient-9)"/>
      <path d="M124.004 4.091 64.359 106.487 3.205 130.552zm-.77-.737L2.434 129.816l1.161 1.728 61.154-24.066.531-.455L124.925 4.627z" class="cls-13"/>
      <path d="m2.7 130.727.31-.671 61.154-24.066.706.648-32.115 107.514-1.014.024z" style="stroke-width:0;fill:url(#linear-gradient-10)"/>
      <path d="M64.359 106.486 32.245 214l-29.04-83.449 61.154-24.066m-.39-.991L2.815 129.56l-.616 1.342 29.04 83.449 2.028-.045 32.114-107.514-1.411-1.297h-.001Z" class="cls-13"/>
      <path d="m64.358 107.019-.459-.801L123.544 3.822h.92l59.645 102.396-.461.801z" style="stroke-width:0;fill:url(#linear-gradient-11)"/>
      <path d="m124.004 4.091 59.645 102.396H64.359zm.921-.537h-1.842L63.438 105.95l.921 1.602h119.29l.921-1.602z" class="cls-13"/>
      <path d="M2.671 297.449V130.552l1.037-.175 29.04 83.448v.351l-29.04 83.448z" style="stroke-width:0;fill:url(#linear-gradient-12)"/>
      <path d="m3.205 130.552 29.04 83.449-29.04 83.449V130.554m1.006-.352-2.072.351v166.896l2.072.351 29.04-83.449v-.7z" class="cls-13"/>
      <path d="m64.358 322.047-.511-.38-32.114-107.514v-.305l32.114-107.515.511-.38h119.29l.512.38 32.114 107.515v.304L184.16 321.667l-.512.38z" style="stroke-width:0;fill:url(#linear-gradient-13)"/>
      <path d="M183.648 106.486 215.762 214l-32.114 107.514H64.358L32.244 214l32.114-107.514zm0-1.066H64.358l-1.021.761-32.114 107.514v.61l32.114 107.514 1.021.761h119.29l1.021-.761 32.114-107.514v-.61l-32.114-107.514z" class="cls-13"/>
      <path d="M41.04 243.445c44.782-39.039 99.404-67.066 159.655-79.895l-17.046-57.065H64.359L32.245 213.999z" style="stroke-width:0;fill:url(#linear-gradient-14)"/>
    </g>
    <g id="Glare">
      <path d="m185.863 103.906-45.394-77.93 91.936 96.246z" style="stroke-width:0;isolation:isolate;opacity:.5;fill:url(#linear-gradient-15)"/>
      <path d="m215.996 224.441 24.761 71.149-52.142 20.518z" style="stroke-width:0;isolation:isolate;fill:url(#linear-gradient-16);opacity:.25"/>
      <path d="m188.615 111.892 52.142 20.518-24.761 71.15z" style="stroke-width:0;isolation:isolate;opacity:.5;fill:url(#linear-gradient-17)"/>
      <path d="m69.947 103.274 54.057-92.803 54.057 92.803z" style="stroke-width:0;isolation:isolate;fill:url(#linear-gradient-18);opacity:.2"/>
      <path d="m107.539 25.976-45.394 77.93-46.543 18.316z" style="stroke-width:0;isolation:isolate;opacity:.5;fill:url(#linear-gradient-19)"/>
      <path d="m7.251 132.41 52.142-20.518-27.382 91.668z" style="stroke-width:0;isolation:isolate;fill:url(#linear-gradient-20);opacity:.5"/>
      <path d="m7.251 295.59 24.76-71.149 27.382 91.667z" style="stroke-width:0;isolation:isolate;opacity:.25;fill:url(#linear-gradient-21)"/>
      <path d="M69.947 324.726h108.114l-54.057 92.805z" style="stroke-width:0;isolation:isolate;opacity:.5;fill:url(#linear-gradient-22)"/>
      <path d="m185.863 324.094 46.542-18.315-91.936 96.245z" style="stroke-width:0;isolation:isolate;opacity:.5;fill:url(#linear-gradient-23)"/>
      <path d="M66.751 318.303h114.504L212.41 214l-5.535-18.532c-54.094 16.691-109.477 42.541-152.893 80.091l12.767 42.743h.001Z" style="stroke-width:0;fill:url(#linear-gradient-24)"/>
      <path d="m190.457 140.503-9.202-30.805H66.751L36.485 211.024c45.95-29.234 100.891-53.616 153.972-70.52Z" style="stroke-width:0;fill:url(#linear-gradient-25)"/>
      <path d="m15.602 305.779 46.543 18.315 45.394 77.931z" style="stroke-width:0;isolation:isolate;opacity:.25;fill:url(#linear-gradient-26)"/>
    </g>
    <g id="Edges">
      <path d="m3.198 130.547 61.156-24.064L124 4.093v-.546h-.964L2.653 129.573l-.075.46.621.514zM120.799 7.444l-57.184 98.182-58.651 23.079z" style="stroke-width:0;fill:url(#linear-gradient-27)"/>
      <path d="m32.241 214 32.114-107.518-61.156 24.064 29.041 83.453Zm-.087-3.479L4.536 131.167l58.158-22.887-30.54 102.239Z" style="stroke-width:0;fill:url(#linear-gradient-28)"/>
      <path d="m244.802 130.547-61.156-24.064L124 4.093v-.546h.964l120.384 126.026.075.46zh.001ZM127.201 7.444l57.184 98.182 58.651 23.079z" style="stroke-width:0;fill:url(#linear-gradient-29)"/>
      <path d="m215.76 214-32.114-107.518 61.156 24.064-29.041 83.453Zm.086-3.479 27.618-79.353-58.158-22.887z" style="stroke-width:0;fill:url(#linear-gradient-30)"/>
      <path d="m3.198 297.453 61.156 24.064L124 423.907v.546h-.964L2.653 298.427l-.075-.46.621-.514zm117.601 123.103-57.184-98.182-58.651-23.079z" style="stroke-width:0;fill:url(#linear-gradient-31)"/>
      <path d="m32.241 214 32.114 107.518-61.156-24.064 29.041-83.453Zm-.087 3.479L4.536 296.832l58.158 22.887z" style="stroke-width:0;fill:url(#linear-gradient-32)"/>
      <path d="m244.802 297.453-61.156 24.064L124 423.907v.546h.964l120.384-126.026.075-.46zM127.201 420.556l57.184-98.182 58.651-23.079z" style="stroke-width:0;fill:url(#linear-gradient-33)"/>
      <path d="m215.76 214-32.114 107.518 61.156-24.064-29.041-83.453Zm.086 3.479 27.618 79.353-58.158 22.887z" style="stroke-width:0;fill:url(#linear-gradient-34)"/>
      <path d="M124.016 4.121v2.112l57.768 99.179H66.217l57.767-99.179V4.121l-59.63 102.361h119.292z" style="stroke-width:0;fill:url(#linear-gradient-35)"/>
      <path d="m3.198 130.547-.621-.514-.45.835v166.264l.45.835.621-.514L32.239 214zm0 163.63V133.822l27.907 80.177z" style="stroke-width:0;fill:url(#linear-gradient-36)"/>
      <path d="m245.423 130.033-.621.514L215.761 214l29.041 83.453.621.514.45-.835V130.868zm-.621 164.144L216.895 214l27.907-80.177z" style="stroke-width:0;fill:url(#linear-gradient-37)"/>
      <path d="m124.016 423.878 59.63-102.362H64.354l59.63 102.362v-2.111l-57.767-99.179h115.567l-57.768 99.179z" style="stroke-width:0;fill:url(#linear-gradient-38)"/>
      <path d="M183.646 106.482H64.354L32.24 214l32.114 107.518h119.292L215.76 214zm-.802 213.964H65.158L33.366 214l31.792-106.446h117.686L214.636 214z" style="stroke-width:0;fill:url(#linear-gradient-39)"/>
    </g>
    <g id="icon">
      <path d="M171.414 194.781c-3.507 0-6.923.819-10.015 2.387l-17.569-17.569a22.1 22.1 0 0 0 2.374-9.986c0-12.241-9.959-22.199-22.199-22.199-3.494 0-6.901.814-9.985 2.374l-42.234-42.234h-6.628l-3.003 10.049 42.024 42.024a22.1 22.1 0 0 0-2.374 9.986c0 9.641 6.269 18.12 15.238 21.081v45.616c-8.969 2.961-15.238 11.44-15.238 21.081 0 12.241 9.959 22.199 22.199 22.199s22.199-9.959 22.199-22.199c0-9.644-6.271-18.124-15.244-21.083v-45.611a22 22 0 0 0 3.032-1.258l17.584 17.584a22.1 22.1 0 0 0-2.36 9.958c0 12.241 9.959 22.199 22.199 22.199s22.199-9.959 22.199-22.199-9.959-22.199-22.199-22.199h-.001Z" style="stroke-width:0;isolation:isolate;opacity:.5;fill:#1e017d"/>
      <path d="M171.414 197.992a18.9 18.9 0 0 0-10.537 3.194l-21.064-21.064a18.9 18.9 0 0 0 3.178-10.511c0-10.486-8.502-18.988-18.988-18.988a18.9 18.9 0 0 0-10.511 3.178l-46.667-46.668h-1.728l-2.038 6.831 45.134 45.134a18.9 18.9 0 0 0-3.178 10.511c0 9.203 6.548 16.872 15.238 18.614v50.55c-8.69 1.742-15.238 9.411-15.238 18.614 0 10.486 8.502 18.988 18.988 18.988s18.988-8.502 18.988-18.988c0-9.205-6.551-16.876-15.244-18.615v-50.548a18.9 18.9 0 0 0 6.768-2.805l21.074 21.074a18.9 18.9 0 0 0-3.162 10.485c0 10.486 8.502 18.988 18.988 18.988s18.988-8.502 18.988-18.988-8.502-18.988-18.988-18.988Zm-35.915 59.398c0 6.338-5.157 11.495-11.495 11.495s-11.495-5.157-11.495-11.495 5.157-11.495 11.495-11.495 11.495 5.157 11.495 11.495m-11.495-76.282c-6.338 0-11.495-5.157-11.495-11.495s5.157-11.495 11.495-11.495 11.495 5.157 11.495 11.495-5.157 11.495-11.495 11.495m47.41 47.367c-6.338 0-11.495-5.157-11.495-11.495s5.157-11.495 11.495-11.495 11.495 5.157 11.495 11.495-5.157 11.495-11.495 11.495" style="fill:#fff;opacity:.79;stroke-width:0;isolation:isolate"/>
    </g>
  </g>
</svg>
