<svg xmlns="http://www.w3.org/2000/svg" id="Layer_4" data-name="Layer 4" viewBox="0 0 250 430">
  <defs>
    <style>
      .cls-1{fill:#acacac;stroke-width:0}
    </style>
  </defs>
  <g id="GitGlass_icon" data-name="GitGlass icon">
    <g id="Edges">
      <path d="M64.73 106.842h.021l57.115-98.05zm59.306-101.88h.021" class="cls-1"/>
      <path d="m246.628 132.032-.521-1.287L125.962 4.962h-1.904L3.898 130.885l-.517 1.126-.011 165.952.521 1.277 120.145 125.794h1.925l120.145-125.783.521-1.277V132.033Zm-29.978 79.519-30.478-102.06 58.051 22.84-27.574 79.221Zm-95.39-22.276v50.445c-8.67 1.745-15.212 9.393-15.212 18.585 0 10.468 8.489 18.946 18.957 18.946s18.946-8.478 18.946-18.946c0-9.191-6.532-16.851-15.212-18.585v-50.445a18.8 18.8 0 0 0 6.755-2.798l21.031 21.031a18.9 18.9 0 0 0-3.159 10.468c0 10.457 8.489 18.946 18.957 18.946s18.946-8.489 18.946-18.946-8.478-18.957-18.946-18.957a18.9 18.9 0 0 0-10.521 3.191l-21.021-21.021c2-3.011 3.17-6.606 3.17-10.489 0-10.468-8.478-18.957-18.946-18.957-3.883 0-7.489 1.17-10.489 3.181l-46.158-46.169h115.379l31.733 106.241-31.733 106.241H66.273L34.54 214.996l29.776-99.699 44.913 44.913a18.77 18.77 0 0 0-3.181 10.489c0 9.181 6.542 16.84 15.212 18.574Zm-7.723-18.574c0-6.33 5.138-11.468 11.468-11.468s11.468 5.138 11.468 11.468-5.138 11.468-11.468 11.468-11.468-5.149-11.468-11.468m22.935 87.604c0 6.33-5.138 11.468-11.468 11.468s-11.468-5.138-11.468-11.468 5.138-11.468 11.468-11.468 11.468 5.138 11.468 11.468m24.372-40.329c0-6.33 5.149-11.478 11.478-11.478s11.468 5.149 11.468 11.478-5.149 11.468-11.468 11.468-11.478-5.149-11.478-11.468m82.954-88.103-58.53-23.031-57.125-98.05 115.656 121.081ZM125.015 7.59l57.658 99.039H67.337zm-3.149 1.202-57.115 98.05L6.2 129.873zM5.785 132.33l58.041-22.85-30.478 102.05zm-1.34 2.638 27.861 80.019-27.861 80.04V134.969Zm.276 162.516.011-.053.011-.011-.021.064Zm28.627-79.019 30.467 102.05-27.871-10.968-30.159-11.883zm88.454 202.685L6.2 300.122l58.551 23.042zm3.213 1.223-57.679-98.997h115.336l-57.658 98.997Zm3.128-1.159 57.126-98.061 58.53-23.031zm58.04-100.699 30.478-102.039 12.34 35.446 15.234 43.743-58.051 22.85Zm59.381-25.499-27.85-80.019 27.85-80.019v160.037Z" class="cls-1"/>
      <path d="m4.732 297.431-.011.053.021-.064-.011.011Z" class="cls-1"/>
    </g>
  </g>
</svg>
